<?xml version="1.0" standalone="no"?>
<!DOCTYPE svg PUBLIC "-//W3C//DTD SVG 20010904//EN"
 "http://www.w3.org/TR/2001/REC-SVG-20010904/DTD/svg10.dtd">
<svg version="1.0" xmlns="http://www.w3.org/2000/svg"
 width="308.000000pt" height="241.000000pt" viewBox="0 0 308.000000 241.000000"
 preserveAspectRatio="xMidYMid meet">

<g transform="translate(0.000000,241.000000) scale(0.100000,-0.100000)"
fill="#000000" stroke="none">
<path d="M1696 348 c3 -5 10 -6 15 -3 13 9 11 12 -6 12 -8 0 -12 -4 -9 -9z"/>
<path d="M749 277 c6 -8 7 -18 3 -22 -4 -5 -1 -5 6 -1 10 6 10 11 1 22 -6 8
-14 14 -16 14 -3 0 0 -6 6 -13z"/>
<path d="M1348 283 c7 -3 16 -2 19 1 4 3 -2 6 -13 5 -11 0 -14 -3 -6 -6z"/>
<path d="M1525 180 c-3 -6 1 -7 9 -4 18 7 21 14 7 14 -6 0 -13 -4 -16 -10z"/>
<path d="M1063 158 c1 -10 -24 -14 -98 -16 -168 -4 -179 -9 -18 -9 146 1 152
2 136 19 -19 21 -24 23 -20 6z"/>
<path d="M1095 160 c5 -8 42 -6 50 1 2 3 -8 5 -25 5 -16 0 -27 -3 -25 -6z"/>
<path d="M1253 155 c1 -5 -4 -9 -10 -7 -7 1 -13 -2 -13 -8 0 -5 7 -10 15 -10
8 0 15 5 15 11 0 8 6 7 17 -2 11 -10 14 -10 9 -1 -4 6 -3 12 3 12 5 0 13 -4
16 -10 3 -5 14 -10 23 -9 12 0 10 3 -6 10 -13 5 -21 12 -19 16 3 5 -8 8 -23 8
-16 1 -28 -4 -27 -10z"/>
<path d="M1445 151 c-6 -6 -30 -11 -55 -14 l-45 -4 46 -1 c31 -1 51 3 59 13
14 16 10 21 -5 6z"/>
<path d="M738 133 c6 -2 18 -2 25 0 6 3 1 5 -13 5 -14 0 -19 -2 -12 -5z"/>
<path d="M1123 133 c9 -2 25 -2 35 0 9 3 1 5 -18 5 -19 0 -27 -2 -17 -5z"/>
</g>
</svg>
